<svg width="1174" height="174" viewBox="0 0 1174 174" fill="none" xmlns="http://www.w3.org/2000/svg">
<path d="M166.764 57.3791C166.241 64.9131 163.963 77.6523 155.77 93.349C154.884 95.0489 153.925 96.7839 152.892 98.5543C141.378 118.258 120.53 141.924 82.9621 165.591C80.2175 163.86 77.5622 162.13 74.9962 160.401C74.411 160.006 73.8291 159.613 73.2535 159.218C72.7961 158.907 72.3417 158.595 71.8906 158.284C70.8679 157.578 69.8607 156.872 68.8691 156.164L67.3911 155.105L67.3538 155.08L65.9317 154.044L65.0603 153.402C64.7492 153.175 64.438 152.945 64.1269 152.714L63.0751 151.93C34.2201 130.212 18.4592 109.018 9.91128 91.5341C9.02549 89.7222 8.21436 87.9529 7.47792 86.226C4.58495 79.5632 2.45945 72.5924 1.14245 65.4486C0.849948 63.8203 0.629018 62.2918 0.464096 60.8753C-0.435192 53.2543 0.249387 48.824 0.249387 48.824C3.70962 20.1423 17.8119 10.4789 33.4142 9.16202C34.7647 9.04683 36.1245 8.99702 37.4936 9.00014C59.5309 9.06551 82.9558 23.5823 82.9558 23.5823C82.9558 23.5823 107.984 7.84203 130.876 9.11221C132.387 9.1966 133.892 9.35974 135.385 9.60098C149.964 11.9795 162.884 22.4273 166.727 49.8763C166.727 49.8763 166.839 50.6765 166.885 52.1801C166.92 53.444 166.913 55.1937 166.764 57.3791Z" fill="#00AAAB"/>
<path d="M166.761 57.3876C166.238 64.9216 163.96 77.6606 155.767 93.3575C154.881 95.0572 153.922 96.7924 152.889 98.5626C122.45 92.52 98.7446 115.81 98.7446 115.81C86.5123 125.548 78.3287 149.211 75.0083 160.409C74.4233 160.014 73.8414 159.622 73.2659 159.226C72.8084 158.915 72.3541 158.604 71.9029 158.292C70.8802 157.587 69.873 156.88 68.8815 156.172L67.4033 155.114L67.3659 155.089L65.9439 154.052L65.0726 153.411C64.7615 153.184 64.4503 152.953 64.1392 152.723L63.0874 151.938C83.2668 101.751 44.0685 92.327 44.0685 92.327C31.9141 87.9498 19.0067 89.4006 9.9236 91.5581C9.03779 89.7462 8.22667 87.9769 7.49023 86.25C4.59727 79.5872 2.47177 72.6164 1.15476 65.4726C0.862262 63.8443 0.641332 62.3158 0.47641 60.8993C31.7555 50.3518 53.497 69.4357 54.5457 70.3758C33.0748 48.2099 32.4337 21.1874 33.4265 9.18599C34.777 9.0708 36.1367 9.02099 37.5059 9.0241C59.5432 9.08948 82.9681 23.6063 82.9681 23.6063C82.9681 23.6063 107.996 7.86599 130.889 9.13618C132.399 9.22056 133.904 9.38371 135.398 9.62495C136.589 21.1749 137.022 49.67 115.925 68.3087C135.858 53.2158 155.061 51.3823 166.898 52.2041C166.916 53.4525 166.91 55.2022 166.761 57.3876Z" fill="white"/>
<path d="M123.848 49.936C111.697 72.8429 96.7448 76.8278 81.5286 76.7874C62.3479 76.7376 49.5058 56.1906 49.5058 56.1906C38.7422 41.4838 37.5848 17.1697 37.5101 9.0007C59.5474 9.06608 82.9723 23.5829 82.9723 23.5829C82.9723 23.5829 108 7.84259 130.893 9.11278C131.419 15.6256 132.097 34.3701 123.848 49.936Z" fill="#D0178B"/>
<path d="M166.762 57.3716C166.239 64.9055 163.962 77.6448 155.768 93.3415C149.156 91.4892 124.007 86.8038 94.0008 111.062C94.0008 111.062 113.216 55.9832 166.762 57.3716Z" fill="#9ACB3C"/>
<path d="M68.1241 101.958C50.0762 81.4384 22.0395 83.4278 7.48283 86.2453C4.58986 79.5824 2.46434 72.6117 1.14735 65.4677C57.37 53.376 67.981 101.291 68.1241 101.958Z" fill="#9ACB3C"/>
<path d="M101.539 77.7145L70.6554 157.412C69.5372 156.632 68.4377 155.852 67.3568 155.071C73.7546 138.851 81.9603 107.365 66.05 76.8958C66.05 76.8927 80.9677 86.7553 101.539 77.7145Z" fill="#9ACB3C"/>
<path d="M292.141 91.009C293.582 94.1451 294.302 97.4506 294.302 100.926C294.302 107.96 291.675 113.978 286.42 118.979C281.251 123.895 271.926 126.48 263.281 126.48H241.923C240.168 126.48 238.744 125.057 238.744 123.301V43.7149C238.744 41.9596 240.168 40.5366 241.923 40.5366H256.925C263.705 40.5366 272.648 41.0239 276.376 42.6343C280.191 44.2447 283.241 46.8721 285.53 50.5166C287.734 53.9916 288.836 57.8904 288.836 62.213C288.836 66.1118 287.924 69.7931 285.911 73.1466C284.831 74.9477 281.653 77.5963 278.474 79.1855C281.102 80.3721 284.344 81.7283 286.293 83.2539C287.564 84.3557 288.667 85.5847 289.599 86.9408C290.615 88.2121 291.463 89.5683 292.141 91.009ZM250.695 114.656H258.959C264.808 114.656 271.058 113.851 273.516 112.749C276.144 111.647 278.093 110.037 279.365 107.918C280.89 105.799 281.653 103.468 281.653 100.926C281.653 97.6201 280.594 94.8656 278.474 92.6618C276.526 90.3734 273.601 88.6784 269.702 87.5765C268.346 87.2375 264.384 87.2798 262.01 87.1951C259.637 87.0256 256.756 86.9408 253.366 86.9408H250.695V114.656ZM269.003 73.3373C271.375 72.4899 273.24 71.049 274.596 69.0148C275.868 67.1501 276.503 64.9888 276.503 62.5309C276.503 59.3949 275.445 56.937 273.326 55.1571C271.121 53.2924 267.351 52.3601 262.01 52.3601H250.695V74.863H257.179C262.603 74.863 266.546 74.3545 269.003 73.3373Z" fill="#282A35"/>
<path d="M325.4 114.783H357.938C359.693 114.783 361.117 116.206 361.117 117.962V123.301C361.117 125.057 359.693 126.48 357.938 126.48H316.628C314.872 126.48 313.449 125.057 313.449 123.301V43.7149C313.449 41.9596 314.872 40.5366 316.628 40.5366H322.221C323.976 40.5366 325.4 41.9596 325.4 43.7149V114.783Z" fill="#282A35"/>
<path d="M450.758 50.8347C459.488 59.5647 463.852 70.2439 463.852 82.8727C463.852 95.5014 459.488 106.181 450.758 114.911C442.027 123.641 431.39 128.006 418.846 128.006C406.219 128.006 395.454 123.641 386.555 114.911C377.825 106.181 373.46 95.6285 373.46 83.254C373.46 75.0326 375.451 67.4045 379.435 60.3697C383.419 53.335 388.885 47.8258 395.836 43.8423C402.616 39.8587 410.032 37.8669 418.084 37.8669C431.052 37.8669 441.943 42.1895 450.758 50.8347ZM451.521 82.8727C451.521 76.6855 450.121 71.0915 447.326 66.0909C444.443 61.175 440.375 57.1915 435.12 54.1401C429.865 51.1737 424.314 49.6905 418.466 49.6905C412.786 49.6905 407.362 51.1737 402.192 54.1401C397.107 57.1915 393.08 61.2173 390.114 66.218C387.233 71.2186 385.792 76.8974 385.792 83.254C385.792 88.0004 386.597 92.2807 388.207 96.0947C389.732 99.9088 392.106 103.426 395.327 106.647C398.548 109.868 402.107 112.241 406.006 113.766C409.736 115.377 413.889 116.182 418.466 116.182C424.399 116.182 429.992 114.741 435.247 111.859C440.417 108.893 444.401 104.867 447.198 99.7816C450.079 94.8658 451.521 89.2293 451.521 82.8727Z" fill="#282A35"/>
<path d="M555.86 50.8347C564.59 59.5647 568.954 70.2439 568.954 82.8727C568.954 95.5014 564.59 106.181 555.86 114.911C547.129 123.641 536.492 128.006 523.948 128.006C511.321 128.006 500.556 123.641 491.657 114.911C482.927 106.181 478.562 95.6285 478.562 83.254C478.562 75.0326 480.553 67.4045 484.537 60.3697C488.52 53.335 493.987 47.8258 500.936 43.8423C507.718 39.8587 515.134 37.8669 523.187 37.8669C536.154 37.8669 547.046 42.1895 555.86 50.8347ZM556.623 82.8727C556.623 76.6855 555.223 71.0915 552.428 66.0909C549.545 61.175 545.477 57.1915 540.222 54.1401C534.967 51.1737 529.416 49.6905 523.567 49.6905C517.888 49.6905 512.464 51.1737 507.295 54.1401C502.209 57.1915 498.183 61.2173 495.216 66.218C492.335 71.2186 490.894 76.8974 490.894 83.254C490.894 88.0004 491.699 92.2807 493.309 96.0947C494.834 99.9088 497.208 103.426 500.429 106.647C503.65 109.868 507.209 112.241 511.108 113.766C514.838 115.377 518.99 116.182 523.567 116.182C529.5 116.182 535.094 114.741 540.349 111.859C545.519 108.893 549.503 104.867 552.301 99.7816C555.182 94.8658 556.623 89.2293 556.623 82.8727Z" fill="#282A35"/>
<path d="M667.549 40.4097C668.95 40.4097 670.137 41.4393 670.337 42.826L682.061 124.538C682.199 125.496 681.456 126.353 680.489 126.353H672.587C671.318 126.353 670.242 125.416 670.068 124.158L662.871 72.0663L636.92 124.583C636.384 125.667 635.28 126.353 634.071 126.353H633.564C632.357 126.353 631.256 125.67 630.718 124.591L604.389 71.6849L597.312 124.15C597.141 125.412 596.066 126.353 594.792 126.353H587.025C586.057 126.353 585.314 125.496 585.451 124.538L597.175 42.8296C597.375 41.4409 598.565 40.4097 599.968 40.4097C601.04 40.4097 602.02 41.0178 602.496 41.9787L633.884 105.376L665.021 41.9843C665.494 41.0204 666.475 40.4097 667.549 40.4097Z" fill="#282A35"/>
<path d="M760.257 43.7149C760.257 41.9596 761.681 40.5366 763.436 40.5366H769.029C770.785 40.5366 772.208 41.9596 772.208 43.7149V123.301C772.208 125.057 770.785 126.48 769.029 126.48H768.955C768.037 126.48 767.163 126.082 766.559 125.389L716.142 67.4892V123.301C716.142 125.057 714.718 126.48 712.963 126.48H706.988C705.233 126.48 703.809 125.057 703.809 123.301V43.6797C703.809 41.9438 705.217 40.5366 706.953 40.5366C707.862 40.5366 708.729 40.9315 709.326 41.6193L760.257 100.29V43.7149Z" fill="#282A35"/>
<path d="M832.571 40.2828C833.804 40.2828 834.927 40.9973 835.45 42.1153L873.71 123.964C874.202 125.017 873.433 126.226 872.27 126.226H863.274C862.295 126.226 861.404 125.664 860.981 124.782L848.704 99.1463H815.777L803.626 124.773C803.204 125.66 802.31 126.226 801.328 126.226H792.095C790.929 126.226 790.159 125.013 790.657 123.959L829.284 42.1048C829.809 40.9925 830.928 40.2828 832.158 40.2828H832.571ZM843.365 87.4498L832.305 64.0571L821.244 87.4498H843.365Z" fill="#282A35"/>
<path d="M876.528 43.2075C876.528 41.4521 877.952 40.0291 879.707 40.0291H935.011C936.766 40.0291 938.19 41.4521 938.19 43.2075V48.6743C938.19 50.4297 936.766 51.8527 935.011 51.8527H913.526V122.921C913.526 124.676 912.102 126.099 910.346 126.099H904.499C902.743 126.099 901.32 124.676 901.32 122.921V51.8527H879.707C877.952 51.8527 876.528 50.4297 876.528 48.6743V43.2075Z" fill="#282A35"/>
<path d="M963.662 43.7149C963.662 41.9596 965.084 40.5366 966.839 40.5366H972.561C974.317 40.5366 975.739 41.9596 975.739 43.7149V123.301C975.739 125.057 974.317 126.48 972.561 126.48H966.839C965.084 126.48 963.662 125.057 963.662 123.301V43.7149Z" fill="#282A35"/>
<path d="M1074.99 50.8347C1083.72 59.5647 1088.09 70.2439 1088.09 82.8727C1088.09 95.5014 1083.72 106.181 1074.99 114.911C1066.26 123.641 1055.63 128.006 1043.08 128.006C1030.45 128.006 1019.69 123.641 1010.79 114.911C1002.06 106.181 997.696 95.6285 997.696 83.254C997.696 75.0326 999.688 67.4045 1003.67 60.3697C1007.66 53.335 1013.12 47.8258 1020.07 43.8423C1026.85 39.8587 1034.27 37.8669 1042.32 37.8669C1055.29 37.8669 1066.18 42.1895 1074.99 50.8347ZM1075.76 82.8727C1075.76 76.6855 1074.36 71.0915 1071.56 66.0909C1068.68 61.175 1064.61 57.1915 1059.36 54.1401C1054.1 51.1737 1048.55 49.6905 1042.7 49.6905C1037.02 49.6905 1031.6 51.1737 1026.43 54.1401C1021.34 57.1915 1017.32 61.2173 1014.35 66.218C1011.47 71.2186 1010.03 76.8974 1010.03 83.254C1010.03 88.0004 1010.83 92.2807 1012.44 96.0947C1013.97 99.9088 1016.34 103.426 1019.56 106.647C1022.78 109.868 1026.34 112.241 1030.24 113.766C1033.97 115.377 1038.13 116.182 1042.7 116.182C1048.64 116.182 1054.23 114.741 1059.48 111.859C1064.65 108.893 1068.64 104.867 1071.43 99.7816C1074.32 94.8658 1075.76 89.2293 1075.76 82.8727Z" fill="#282A35"/>
<path d="M1162.05 43.7149C1162.05 41.9596 1163.47 40.5366 1165.23 40.5366H1170.82C1172.58 40.5366 1174 41.9596 1174 43.7149V123.333C1174 125.071 1172.59 126.48 1170.85 126.48C1169.94 126.48 1169.08 126.087 1168.48 125.402L1117.93 67.4892V123.301C1117.93 125.057 1116.51 126.48 1114.75 126.48H1108.78C1107.02 126.48 1105.6 125.057 1105.6 123.301V43.6797C1105.6 41.9438 1107.01 40.5366 1108.74 40.5366C1109.66 40.5366 1110.52 40.9315 1111.12 41.6193L1162.05 100.29V43.7149Z" fill="#282A35"/>
</svg>
