<svg width="937" height="401" viewBox="0 0 937 401" fill="none" xmlns="http://www.w3.org/2000/svg">
<g clip-path="url(#clip0_1_235)">
<path d="M555.614 98.3007C555.059 106.29 552.644 119.798 543.956 136.443C543.017 138.245 541.999 140.085 540.904 141.962C528.695 162.856 506.588 187.951 466.751 213.047C463.841 211.212 461.025 209.377 458.304 207.544C457.684 207.125 457.067 206.709 456.456 206.29C455.971 205.959 455.489 205.629 455.011 205.299C453.926 204.551 452.858 203.802 451.807 203.051L450.24 201.929L450.2 201.902L448.692 200.803L447.768 200.123C447.438 199.882 447.108 199.638 446.778 199.393L445.663 198.562C415.066 175.532 398.353 153.058 389.289 134.518C388.349 132.597 387.489 130.721 386.708 128.89C383.641 121.825 381.387 114.433 379.99 106.858C379.68 105.131 379.446 103.51 379.271 102.008C378.317 93.9268 379.043 89.229 379.043 89.229C382.713 58.8151 397.667 48.5682 414.211 47.1718C415.643 47.0497 417.085 46.9968 418.537 47.0001C441.905 47.0695 466.744 62.4629 466.744 62.4629C466.744 62.4629 493.284 45.7721 517.559 47.119C519.161 47.2085 520.757 47.3815 522.34 47.6373C537.799 50.1594 551.499 61.2382 555.574 90.3449C555.574 90.3449 555.693 91.1933 555.742 92.7877C555.779 94.128 555.772 95.9833 555.614 98.3007Z" fill="#00AAAB"/>
<path d="M555.607 98.3094C555.053 106.298 552.638 119.807 543.95 136.452C543.01 138.254 541.993 140.094 540.898 141.971C508.621 135.564 483.484 160.26 483.484 160.26C470.513 170.586 461.835 195.678 458.314 207.553C457.694 207.134 457.077 206.718 456.467 206.298C455.981 205.968 455.5 205.638 455.021 205.308C453.937 204.56 452.869 203.81 451.817 203.06L450.25 201.937L450.21 201.911L448.702 200.812L447.779 200.132C447.449 199.891 447.119 199.646 446.789 199.402L445.673 198.57C467.071 145.352 425.506 135.359 425.506 135.359C412.618 130.717 398.931 132.256 389.299 134.543C388.36 132.622 387.5 130.746 386.719 128.915C383.651 121.85 381.397 114.458 380.001 106.883C379.691 105.156 379.456 103.535 379.281 102.033C412.449 90.8488 435.504 111.085 436.616 112.082C413.848 88.5775 413.169 59.9231 414.221 47.197C415.653 47.0748 417.095 47.022 418.547 47.0253C441.915 47.0946 466.755 62.4881 466.755 62.4881C466.755 62.4881 493.294 45.7972 517.569 47.1441C519.171 47.2336 520.767 47.4066 522.35 47.6624C523.614 59.9099 524.073 90.1258 501.701 109.89C522.839 93.8858 543.201 91.9415 555.753 92.8129C555.772 94.1367 555.766 95.992 555.607 98.3094Z" fill="white"/>
<path d="M510.106 90.4081C497.221 114.698 481.366 118.924 465.231 118.881C444.892 118.828 431.274 97.0404 431.274 97.0404C419.861 81.4454 418.633 55.6631 418.554 47.0007C441.922 47.07 466.762 62.4635 466.762 62.4635C466.762 62.4635 493.301 45.7727 517.576 47.1195C518.134 54.0257 518.853 73.9021 510.106 90.4081Z" fill="#D0178B"/>
<path d="M555.607 98.2924C555.053 106.281 552.638 119.79 543.95 136.435C536.938 134.47 510.27 129.502 478.452 155.225C478.452 155.225 498.827 96.8202 555.607 98.2924Z" fill="#9ACB3C"/>
<path d="M451.015 145.571C431.877 123.813 402.147 125.922 386.712 128.91C383.644 121.845 381.39 114.453 379.993 106.878C439.611 94.0558 450.863 144.865 451.015 145.571Z" fill="#9ACB3C"/>
<path d="M486.446 119.864L453.697 204.375C452.512 203.548 451.346 202.72 450.2 201.893C456.984 184.693 465.685 151.305 448.814 118.996C448.814 118.993 464.632 129.451 486.446 119.864Z" fill="#9ACB3C"/>
<path d="M53.3581 317.145C54.8016 320.286 55.5225 323.597 55.5225 327.077C55.5225 334.122 52.892 340.148 47.6293 345.157C42.452 350.08 33.1137 352.669 24.4559 352.669H3.06644C1.30844 352.669 -0.11731 351.244 -0.11731 349.486V269.781C-0.11731 268.023 1.30844 266.598 3.06644 266.598H18.0901C24.8801 266.598 33.8362 267.086 37.57 268.699C41.3908 270.312 44.4455 272.943 46.7374 276.593C48.9453 280.073 50.0485 283.978 50.0485 288.307C50.0485 292.211 49.1356 295.898 47.1196 299.257C46.0374 301.06 42.8552 303.713 39.6715 305.304C42.3036 306.493 45.5503 307.851 47.5018 309.379C48.7744 310.482 49.8792 311.713 50.813 313.071C51.8307 314.344 52.6791 315.703 53.3581 317.145ZM11.8516 340.828H20.1271C25.9849 340.828 32.2444 340.021 34.7056 338.918C37.3377 337.814 39.2892 336.202 40.5634 334.08C42.0907 331.957 42.8552 329.623 42.8552 327.077C42.8552 323.766 41.794 321.008 39.6715 318.801C37.7199 316.509 34.791 314.811 30.8863 313.708C29.5283 313.368 25.5607 313.411 23.1834 313.326C20.8061 313.156 17.9207 313.071 14.5257 313.071H11.8516V340.828ZM30.1864 299.448C32.5621 298.599 34.4298 297.156 35.7878 295.119C37.0619 293.251 37.6974 291.087 37.6974 288.625C37.6974 285.485 36.6377 283.023 34.5152 281.241C32.3073 279.373 28.5316 278.439 23.1834 278.439H11.8516V300.976H18.3449C23.7769 300.976 27.7252 300.466 30.1864 299.448Z" fill="#282A35"/>
<path d="M86.6654 340.955H119.251C121.009 340.955 122.435 342.38 122.435 344.138V349.486C122.435 351.244 121.009 352.669 119.251 352.669H77.8803C76.1223 352.669 74.6965 351.244 74.6965 349.486V269.781C74.6965 268.023 76.1223 266.598 77.8803 266.598H83.4817C85.2396 266.598 86.6654 268.024 86.6654 269.781V340.955Z" fill="#282A35"/>
<path d="M212.206 276.912C220.949 285.655 225.32 296.35 225.32 308.998C225.32 321.645 220.949 332.34 212.206 341.083C203.463 349.826 192.81 354.197 180.247 354.197C167.601 354.197 156.821 349.826 147.908 341.083C139.165 332.34 134.794 321.772 134.794 309.38C134.794 301.146 136.788 293.507 140.778 286.461C144.768 279.416 150.242 273.899 157.203 269.91C163.993 265.92 171.42 263.925 179.485 263.925C192.471 263.925 203.379 268.254 212.206 276.912ZM212.97 308.998C212.97 302.801 211.569 297.199 208.769 292.191C205.882 287.268 201.808 283.278 196.545 280.223C191.283 277.252 185.723 275.766 179.867 275.766C174.178 275.766 168.746 277.252 163.569 280.223C158.476 283.278 154.444 287.31 151.473 292.318C148.587 297.326 147.144 303.014 147.144 309.38C147.144 314.133 147.95 318.42 149.563 322.239C151.091 326.059 153.468 329.582 156.694 332.807C159.919 336.033 163.484 338.409 167.388 339.937C171.124 341.55 175.283 342.356 179.867 342.356C185.809 342.356 191.41 340.913 196.673 338.027C201.85 335.056 205.84 331.025 208.642 325.932C211.527 321.008 212.97 315.364 212.97 308.998Z" fill="#282A35"/>
<path d="M317.466 276.912C326.209 285.655 330.58 296.35 330.58 308.998C330.58 321.645 326.209 332.34 317.466 341.083C308.722 349.826 298.07 354.197 285.507 354.197C272.861 354.197 262.081 349.826 253.168 341.083C244.425 332.34 240.054 321.772 240.054 309.38C240.054 301.146 242.048 293.507 246.038 286.461C250.026 279.416 255.502 273.899 262.461 269.91C269.253 265.92 276.68 263.925 284.744 263.925C297.731 263.925 308.638 268.254 317.466 276.912ZM318.23 308.998C318.23 302.801 316.828 297.199 314.029 292.191C311.142 287.268 307.068 283.278 301.805 280.223C296.542 277.252 290.983 275.766 285.125 275.766C279.438 275.766 274.006 277.252 268.829 280.223C263.735 283.278 259.703 287.31 256.732 292.318C253.847 297.326 252.404 303.014 252.404 309.38C252.404 314.133 253.21 318.42 254.823 322.239C256.35 326.059 258.728 329.582 261.953 332.807C265.179 336.033 268.743 338.409 272.648 339.937C276.383 341.55 280.541 342.356 285.125 342.356C291.067 342.356 296.67 340.913 301.932 338.027C307.11 335.056 311.1 331.025 313.901 325.932C316.787 321.008 318.23 315.364 318.23 308.998Z" fill="#282A35"/>
<path d="M429.32 266.471C430.724 266.471 431.912 267.502 432.112 268.891L443.854 350.724C443.992 351.683 443.247 352.541 442.28 352.541H434.365C433.094 352.541 432.017 351.603 431.843 350.343L424.635 298.174L398.646 350.768C398.109 351.854 397.004 352.541 395.793 352.541H395.285C394.077 352.541 392.973 351.858 392.435 350.776L366.066 297.792L358.98 350.335C358.809 351.599 357.731 352.541 356.455 352.541H348.677C347.707 352.541 346.964 351.683 347.101 350.724L358.842 268.894C359.042 267.504 360.234 266.471 361.639 266.471C362.713 266.471 363.694 267.08 364.171 268.042L395.606 331.533L426.788 268.048C427.262 267.083 428.245 266.471 429.32 266.471Z" fill="#282A35"/>
<path d="M522.166 269.781C522.166 268.024 523.591 266.598 525.349 266.598H530.951C532.709 266.598 534.134 268.024 534.134 269.781V349.486C534.134 351.244 532.709 352.669 530.951 352.669H530.876C529.957 352.669 529.081 352.27 528.477 351.576L477.985 293.591V349.486C477.985 351.244 476.559 352.669 474.801 352.669H468.818C467.06 352.669 465.634 351.244 465.634 349.486V269.746C465.634 268.008 467.043 266.598 468.782 266.598C469.693 266.598 470.561 266.994 471.159 267.683L522.166 326.44V269.781Z" fill="#282A35"/>
<path d="M594.585 266.344C595.82 266.344 596.944 267.06 597.468 268.179L635.785 350.149C636.278 351.204 635.507 352.414 634.343 352.414H625.333C624.353 352.414 623.461 351.852 623.037 350.968L610.742 325.295H577.766L565.597 350.959C565.175 351.848 564.279 352.414 563.296 352.414H554.049C552.881 352.414 552.11 351.199 552.609 350.144L591.293 268.169C591.819 267.055 592.94 266.344 594.172 266.344H594.585ZM605.396 313.581L594.319 290.154L583.242 313.581H605.396Z" fill="#282A35"/>
<path d="M638.609 269.273C638.609 267.515 640.035 266.09 641.793 266.09H697.178C698.936 266.09 700.361 267.515 700.361 269.273V274.748C700.361 276.506 698.936 277.931 697.178 277.931H675.661V349.104C675.661 350.862 674.235 352.287 672.477 352.287H666.621C664.863 352.287 663.437 350.862 663.437 349.104V277.931H641.793C640.035 277.931 638.609 276.506 638.609 274.748V269.273Z" fill="#282A35"/>
<path d="M725.873 269.781C725.873 268.023 727.298 266.598 729.056 266.598H734.786C736.544 266.598 737.968 268.024 737.968 269.781V349.486C737.968 351.244 736.544 352.669 734.786 352.669H729.056C727.298 352.669 725.873 351.244 725.873 349.486V269.781Z" fill="#282A35"/>
<path d="M837.369 276.912C846.112 285.655 850.484 296.35 850.484 308.998C850.484 321.645 846.112 332.34 837.369 341.083C828.627 349.826 817.974 354.197 805.412 354.197C792.764 354.197 781.984 349.826 773.071 341.083C764.328 332.34 759.957 321.772 759.957 309.38C759.957 301.146 761.952 293.507 765.941 286.461C769.931 279.416 775.405 273.899 782.366 269.91C789.156 265.92 796.583 263.925 804.648 263.925C817.634 263.925 828.542 268.254 837.369 276.912ZM838.133 308.998C838.133 302.801 836.733 297.199 833.932 292.191C831.047 287.268 826.971 283.278 821.708 280.223C816.445 277.252 810.886 275.766 805.03 275.766C799.343 275.766 793.909 277.252 788.732 280.223C783.639 283.278 779.607 287.31 776.636 292.318C773.75 297.326 772.307 303.014 772.307 309.38C772.307 314.133 773.113 318.42 774.726 322.239C776.255 326.059 778.631 329.582 781.856 332.807C785.082 336.033 788.647 338.409 792.551 339.937C796.287 341.55 800.446 342.356 805.03 342.356C810.972 342.356 816.573 340.913 821.836 338.027C827.014 335.056 831.003 331.025 833.804 325.932C836.69 321.008 838.133 315.364 838.133 308.998Z" fill="#282A35"/>
<path d="M924.551 269.781C924.551 268.024 925.976 266.598 927.734 266.598H933.336C935.094 266.598 936.519 268.024 936.519 269.781V349.517C936.519 351.258 935.108 352.669 933.368 352.669C932.458 352.669 931.592 352.275 930.994 351.589L880.37 293.591V349.486C880.37 351.244 878.944 352.669 877.186 352.669H871.203C869.445 352.669 868.019 351.244 868.019 349.486V269.746C868.019 268.008 869.428 266.598 871.167 266.598C872.08 266.598 872.946 266.994 873.544 267.683L924.551 326.44V269.781Z" fill="#282A35"/>
</g>
<defs>
<clipPath id="clip0_1_235">
<rect width="937" height="401" fill="white"/>
</clipPath>
</defs>
</svg>
