<?xml version="1.0" encoding="UTF-8" standalone="no"?>
<svg width="34px" height="41px" viewBox="0 0 34 41" version="1.1" xmlns="http://www.w3.org/2000/svg" xmlns:xlink="http://www.w3.org/1999/xlink">
    <!-- Generator: Sketch 40.3 (33839) - http://www.bohemiancoding.com/sketch -->
    <title>Combined Shape</title>
    <desc>Created with Sketch.</desc>
    <defs></defs>
    <g id="ixons" stroke="none" stroke-width="1" fill="none" fill-rule="evenodd">
        <path d="M26,20 C26,14.1764935 21.9705627,11.55 17,11 C12.0294373,11.55 8,14.1764935 8,20 C8,20.9134367 8,39 8,39 L26,39 C26,39 26,21.1239609 26,20 Z M6,39 C6,38.4347949 6,38.4347949 6,36.159702 L6,29.8425387 L6,29.4820991 L6,23.2134047 L6,20 C6,13.7946921 9.92039431,10.0454822 16,9.11476138 L16,5 L13,5 L13,3 L16,3 L16,0 L18,0 L18,3 L21,3 L21,5 L18,5 L18,9.11476138 C24.0796057,10.0454822 28,13.7946921 28,20 L28,21.0816513 L28,23.2659607 L28,29.4723428 L28,34.3238432 L28,39 L34,39 L34,41 L0,41 L0,39 L6,39 Z M11,19 L23,19 L23,21 L11,21 L11,19 Z M11,24 L23,24 L23,26 L11,26 L11,24 Z M11,29 L23,29 L23,31 L11,31 L11,29 Z" id="Combined-Shape" fill="#CCCCCC"></path>
    </g>
</svg>