<?xml version="1.0" encoding="UTF-8" standalone="no"?>
<svg width="42px" height="34px" viewBox="0 0 42 34" version="1.1" xmlns="http://www.w3.org/2000/svg" xmlns:xlink="http://www.w3.org/1999/xlink">
    <!-- Generator: Sketch 40.3 (33839) - http://www.bohemiancoding.com/sketch -->
    <title>icon-delivery</title>
    <desc>Created with Sketch.</desc>
    <defs></defs>
    <g id="ixons" stroke="none" stroke-width="1" fill="none" fill-rule="evenodd">
        <g id="icon-delivery" fill="#CCCCCC">
            <path d="M16,28 C16,25.790861 14.209139,24 12,24 C9.790861,24 8,25.790861 8,28 C8,30.209139 9.790861,32 12,32 C14.209139,32 16,30.209139 16,28 Z M6,28 C6,24.6862915 8.6862915,22 12,22 C15.3137085,22 18,24.6862915 18,28 C18,31.3137085 15.3137085,34 12,34 C8.6862915,34 6,31.3137085 6,28 Z" id="Oval-4"></path>
            <path d="M37,28 C37,25.790861 35.209139,24 33,24 C30.790861,24 29,25.790861 29,28 C29,30.209139 30.790861,32 33,32 C35.209139,32 37,30.209139 37,28 Z M27,28 C27,24.6862915 29.6862915,22 33,22 C36.3137085,22 39,24.6862915 39,28 C39,31.3137085 36.3137085,34 33,34 C29.6862915,34 27,31.3137085 27,28 Z" id="Oval-4-Copy"></path>
            <path d="M41.7268377,15.25 L41.7832964,15.25 L41.7832964,16 L41.7832964,27.0000504 L41.7832964,27.5193803 L41.297171,27.7020975 L39.6949548,28.3043137 L38.9929076,28.5681883 L38.4651585,27.164094 L39.1672056,26.9002194 L40.7694218,26.2980032 L40.2832964,27.0000504 L40.2832964,16 L41.0332964,16.75 L26,16.75 L25.25,16.75 L25.25,16 L25.25,2 L25.4696699,2.53033009 L24.4696699,1.53033009 L25,1.75 L2,1.75 L2.53033009,1.53033009 L1.53033009,2.53033009 L1.75,2 L1.75,27 L1.62403772,26.5839749 L2.12403772,27.3339749 L1.5,27 L5.5,27 L6.25,27 L6.25,28.5 L5.5,28.5 L1.5,28.5 L1.09861218,28.5 L0.875962279,28.1660251 L0.375962279,27.4160251 L0.25,27.2270817 L0.25,27 L0.25,2 L0.25,1.68933983 L0.469669914,1.46966991 L1.46966991,0.469669914 L1.68933983,0.25 L2,0.25 L25,0.25 L25.3106602,0.25 L25.5303301,0.469669914 L26.5303301,1.46966991 L26.75,1.68933983 L26.75,2 L26.75,16 L26,15.25 L40.2176068,15.25 L40.2545872,14.9171764 C40.6700367,11.1781312 39.0342773,8.79884485 35.9707786,7.39308352 C34.9859499,6.94117081 33.9228805,6.62823261 32.8586431,6.43166351 C32.485811,6.36279987 32.1403261,6.31355993 31.8317586,6.28073766 C31.6505698,6.26146464 31.5249256,6.25203679 31.5,6.25 L27,6.02976584 L27,4.5 L28,4.5 C28.0888873,5.00423273 28.7887862,4.43414686 29,4.5 C29.3454368,4.49335768 32.7191178,4.88052048 33.1310909,4.95661363 C34.309154,5.17420681 35.4883851,5.52133976 36.5963702,6.02976584 C40.2065543,7.68638712 42.238796,10.642375 41.7454128,15.0828236 L41.7268377,15.25 Z M26.5,28.5 L27.25,28.5 L27.25,27 L26.5,27 L18.5,27 L17.75,27 L17.75,28.5 L18.5,28.5 L26.5,28.5 Z" id="Combined-Shape"></path>
        </g>
    </g>
</svg>