<?xml version="1.0" encoding="UTF-8" standalone="no"?>
<svg width="38px" height="38px" viewBox="0 0 38 38" version="1.1" xmlns="http://www.w3.org/2000/svg" xmlns:xlink="http://www.w3.org/1999/xlink">
    <!-- Generator: Sketch 40.3 (33839) - http://www.bohemiancoding.com/sketch -->
    <title>icon-neighborhoods</title>
    <desc>Created with Sketch.</desc>
    <defs></defs>
    <g id="ixons" stroke="none" stroke-width="1" fill="none" fill-rule="evenodd">
        <path d="M18.5607869,34.6053996 L17.3916595,33.2051265 C17.3029491,33.0988773 17.1416691,32.9025199 16.9181266,32.6253033 C16.5483997,32.1668026 16.1371498,31.6460788 15.6946594,31.0723289 C14.4306297,29.4333398 13.1664962,27.6941674 11.9839174,25.9268053 C11.0151867,24.4790388 10.1423117,23.0723564 9.38828492,21.7255832 C7.46692457,18.2938264 6.3868102,15.4085188 6.3868102,13.0842653 C6.3868102,5.85802509 11.8372852,0 18.5607869,0 C25.2842886,0 30.7347636,5.85802509 30.7347636,13.0842653 C30.7347636,15.4085188 29.6546492,18.2938264 27.7332889,21.7255832 C26.9792621,23.0723564 26.1063871,24.4790388 25.1376564,25.9268053 C23.9550776,27.6941674 22.6909441,29.4333398 21.4269144,31.0723289 C20.984424,31.6460788 20.5731741,32.1668026 20.2034473,32.6253033 C19.9799047,32.9025199 19.8186247,33.0988773 19.7299143,33.2051265 L18.5607869,34.6053996 Z M29.1278205,13.25 C29.1278205,7.03679656 24.461301,2 18.7048575,2 C12.9484139,2 8.28189439,7.03679656 8.28189439,13.25 C8.28189439,19.4632034 18.7048575,32 18.7048575,32 C18.7048575,32 29.1278205,19.4632034 29.1278205,13.25 Z M13.967147,11.7287333 C13.967147,9.11712599 15.973213,7 18.4478208,7 C20.9224286,7 22.9284946,9.11712599 22.9284946,11.7287333 C22.9284946,14.3403405 20.9224286,16.4574665 18.4478208,16.4574665 C15.973213,16.4574665 13.967147,14.3403405 13.967147,11.7287333 Z M21.5474837,12 C21.5474837,10.3431458 20.2747966,9 18.7048575,9 C17.1349183,9 15.8622312,10.3431458 15.8622312,12 C15.8622312,13.6568542 17.1349183,15 18.7048575,15 C20.2747966,15 21.5474837,13.6568542 21.5474837,12 Z M0.771482161,31.1817296 C-0.505943614,32.7629114 -0.265236387,33.951532 2.00746425,35.2839416 C4.66555292,36.8422915 5.38731675,37.8054199 19.0610402,37.8054199 C32.7347636,37.8054199 32.5098622,36.1918311 35.8352977,34.7005878 C38.7347636,33.4003644 38.0960872,32.0919708 36.6390345,30.6245851 C35.3485549,29.3249537 33.275893,28.2182903 28.7347636,26.8054199 L25.7347636,26.8054199 L25.7347636,28.8054199 L27.7347636,28.8054199 C30.7347636,28.8054199 34.5075461,30.6068362 35.5746333,31.681491 C36.2642758,32.3760243 36.1554837,32.7859315 35.0873545,33.4003644 C32.6102124,34.8253208 26.2328308,35.7968163 19.033487,35.8054199 C11.7929934,36.062103 5.34057193,35.3187834 2.69643798,33.951532 C0.3598344,32.7433011 4.73476361,28.8054199 9.96817775,28.8054199 L11.6691998,28.8054199 L11.6691998,26.8054199 L8.96817775,26.8054199 C3.73476361,28.0098404 1.91035681,29.7720446 0.771482161,31.1817296 Z" id="icon-neighborhoods" fill="#CCCCCC"></path>
    </g>
</svg>