<svg xmlns="http://www.w3.org/2000/svg" width="56" height="56" viewBox="0 0 56 56"><title>Account Information</title><desc>See your account information.</desc><g fill="none"><g fill="#AAA"><path d="M42 23C42.1 15.1 36 9 28 9 20.9 9 14.8 15.1 15 23 14.8 26.5 16.5 30.2 19 33 12 35.7 7 42.4 7 50L7 56 9 56 9 50C9.3 42.8 14.6 36.5 22 34L25 33 23 32C19.2 30 17.2 26.5 17 23 17.2 16.3 22.2 11.3 28 11 34.7 11.3 39.7 16.3 40 23 39.7 26.5 37.7 30 34 32L32 33 35 34C42.3 36.5 47.5 42.8 48 50 47.7 51.8 47.7 53.7 48 55 47.7 55.5 47.7 55.7 48 56 47.7 56 50 56 50 56 50 55.7 50 55.5 50 55 50 53.7 50 51.8 50 50 49.9 42.4 44.9 35.7 37 33 40.3 30.2 42.1 26.5 42 23Z"/></g></g></svg>