<?xml version="1.0" encoding="UTF-8" standalone="no"?>
<svg width="31px" height="41px" viewBox="0 0 31 41" version="1.1" xmlns="http://www.w3.org/2000/svg" xmlns:xlink="http://www.w3.org/1999/xlink">
    <!-- Generator: Sketch 40.3 (33839) - http://www.bohemiancoding.com/sketch -->
    <title>icon-address</title>
    <desc>Created with Sketch.</desc>
    <defs></defs>
    <g id="ixons" stroke="none" stroke-width="1" fill="none" fill-rule="evenodd">
        <path d="M29,15.5 C29,8.04415588 22.9558441,2 15.5,2 C8.04415588,2 2,8.04415588 2,15.5 C2,22.9558441 15.5,38 15.5,38 C15.5,38 29,22.9558441 29,15.5 Z M15.5,40.9945598 L14.0114581,39.3357556 C13.8985113,39.2098897 13.6931684,38.9772791 13.4085523,38.6488802 C12.9378133,38.105727 12.4142068,37.4888625 11.8508246,36.8091817 C10.2414524,34.8675878 8.63194789,32.8073136 7.12627959,30.7136453 C5.89288425,28.9985791 4.78153321,27.3321824 3.82150051,25.7367558 C1.37520985,21.6713972 0,18.2533782 0,15.5 C0,6.93958638 6.93958638,0 15.5,0 C24.0604136,0 31,6.93958638 31,15.5 C31,18.2533782 29.6247902,21.6713972 27.1784995,25.7367558 C26.2184668,27.3321824 25.1071157,28.9985791 23.8737204,30.7136453 C22.3680521,32.8073136 20.7585476,34.8675878 19.1491754,36.8091817 C18.5857932,37.4888625 18.0621867,38.105727 17.5914477,38.6488802 C17.3068316,38.9772791 17.1014887,39.2098897 16.9885419,39.3357556 L15.5,40.9945598 Z M23,14.5 C23,10.3578644 19.6421356,7 15.5,7 C11.3578644,7 8,10.3578644 8,14.5 C8,18.6421356 11.3578644,22 15.5,22 C19.6421356,22 23,18.6421356 23,14.5 Z M6,14.5 C6,9.25329488 10.2532949,5 15.5,5 C20.7467051,5 25,9.25329488 25,14.5 C25,19.7467051 20.7467051,24 15.5,24 C10.2532949,24 6,19.7467051 6,14.5 Z" id="icon-address" fill="#CCCCCC"></path>
    </g>
</svg>