<?xml version="1.0" encoding="UTF-8" standalone="no"?>
<svg width="35px" height="35px" viewBox="0 0 35 35" version="1.1" xmlns="http://www.w3.org/2000/svg" xmlns:xlink="http://www.w3.org/1999/xlink">
    <!-- Generator: Sketch 40.3 (33839) - http://www.bohemiancoding.com/sketch -->
    <title>icon-phone</title>
    <desc>Created with Sketch.</desc>
    <defs></defs>
    <g id="ixons" stroke="none" stroke-width="1" fill="none" fill-rule="evenodd">
        <path d="M18.9068922,33.9097597 L19.0539316,33.9760742 L19.2152331,33.9760742 C20.376542,33.9760742 21.1961615,34.0744286 22.2035824,34.2865172 C22.3265158,34.3123979 22.731156,34.4003025 22.7570659,34.4058546 C22.9767443,34.4529285 23.1437993,34.4864615 23.3093839,34.5156823 C25.1267843,34.8364 26.8173442,34.498288 30.5106726,32.915433 C32.7819858,31.942013 33.9616138,27.7850494 32.9347572,26.214563 C31.6208991,24.2051329 29.9715155,22.7700172 28.3436334,22.487147 C27.5491804,22.3490983 27.0188064,22.4449826 26.4943739,22.8029762 C26.3632339,22.8924964 25.8825091,23.2801659 25.7441162,23.3790613 C25.4129392,23.6157202 25.0415653,23.8207583 24.5434665,24.021531 C24.1199141,24.1922557 23.6216437,24.3513893 23.0333314,24.4984673 C22.8241514,24.5507623 22.635503,24.5801282 22.4382725,24.5927114 C22.1404513,24.6117122 22.1717272,24.6132452 21.0638435,24.539811 C20.421824,24.4972558 19.8824368,24.4760742 19.2152331,24.4760742 C16.1064637,24.4760742 10.4946509,20.3262629 9.67018602,15.7422381 C9.47641271,14.6648585 9.55621818,13.2278094 9.94882052,11.3821177 L9.96523315,11.2260742 C9.96523315,10.5201738 10.2175634,9.98690913 10.8149028,9.23442418 C10.8798254,9.15263927 11.1546375,8.81488269 11.2242674,8.72691753 C11.3907861,8.51655048 11.5144227,8.34583834 11.6207412,8.17201528 C11.7825161,7.90752538 11.8935744,7.64988522 11.9497545,7.37766023 C12.2715163,5.81853962 11.5244166,4.57906692 9.64770227,2.67108654 C9.50195553,2.52291166 9.42495945,2.44566159 9.10583491,2.12651974 C8.4362681,1.45691664 8.11599581,1.12395524 7.78432238,0.737568907 L7.55985575,0.476074219 L7.21523315,0.476074219 C4.6987369,0.476074219 4.6106722,0.485859185 4.1707887,1.07237052 C4.12756178,1.13000642 3.99702855,1.32580625 3.9676935,1.36654938 C3.88987696,1.47462791 3.80321816,1.57742903 3.68490306,1.69574413 L4.96523315,2.22607422 L4.21523315,2.22607422 C4.96523315,2.11939994 4.95272279,1.99429642 4.90960286,1.8505633 C4.79536389,1.46976673 4.51304063,1.15607422 4.02323315,1.15607422 C3.64330016,1.15607422 3.33807811,1.35955559 3.00976254,1.72435067 C2.44799124,2.348541 1.65288938,3.67371076 0.544412752,5.89066402 L0.494090185,6.02003337 C-2.04085058,14.892326 5.34070911,27.7914342 18.9068922,33.9097597 Z M1.88605354,6.56148442 C2.93757691,4.45843768 3.67847505,3.22360744 4.12470375,2.72779777 C4.18949699,2.65580528 4.23563845,2.6138585 4.25625829,2.60011194 C4.21419015,2.62815737 4.13881466,2.65607422 4.02323315,2.65607422 C3.70142566,2.65607422 3.5271024,2.46238171 3.47286343,2.28158513 C3.4657435,2.25785202 4.21523315,2.22607422 4.21523315,2.22607422 L3.46523315,4.03673439 L4.74556323,2.7564043 C4.92256977,2.57939777 5.06119865,2.41494586 5.18499501,2.24300647 C5.23899329,2.16800885 5.35846007,1.98880869 5.3707887,1.97237052 C5.65693179,1.98099474 5.98168594,1.97607422 7.21523315,1.97607422 L6.64614391,1.71457953 C7.01063953,2.13920242 7.34896965,2.49093708 8.04514598,3.18715116 C8.36088087,3.50290317 8.4366628,3.57893507 8.57831627,3.7229485 C10.110159,5.28031173 10.6620309,6.19589259 10.4807117,7.07448821 C10.463156,7.1595561 10.4189603,7.26208394 10.3411245,7.38933975 C10.2719091,7.50250185 10.1804318,7.62880988 10.0481392,7.79593829 C9.98663894,7.873633 9.71270405,8.21031152 9.64006756,8.30181372 C8.85180715,9.29480717 8.46523315,10.1117774 8.46523315,11.2260742 L8.48164577,11.0700308 C8.05174146,13.0910855 7.9615124,14.7158313 8.19387402,16.0077619 C9.1540094,21.3461146 15.4151294,25.9760742 19.2152331,25.9760742 C19.8457777,25.9760742 20.3532694,25.9960033 20.9646362,26.0365267 C22.1794772,26.1170504 22.1371214,26.1149743 22.5337776,26.0896679 C22.8215585,26.0713076 23.1000064,26.0279632 23.3971349,25.9536811 C24.050285,25.7903936 24.6141382,25.6103146 25.1042423,25.4127644 C25.7137824,25.1670721 26.1894632,24.9044456 26.616227,24.5994804 C26.807153,24.4630448 27.2709262,24.0890456 27.340066,24.0418486 C27.5254944,23.9152696 27.6603395,23.8908914 28.0868329,23.9650014 C29.2158584,24.1611874 30.570848,25.3401531 31.6793028,27.035437 C31.8372532,27.2770082 31.8330404,28.2639483 31.5607189,29.2235988 C31.2366866,30.3654762 30.6416667,31.2273413 29.9197937,31.5367154 C26.4702649,33.0150849 25.04858,33.2994219 23.5700619,33.038507 C23.4255509,33.013005 23.2747581,32.9827364 23.0713596,32.939151 C23.0496504,32.934499 22.6411816,32.8457627 22.5125981,32.8186925 C21.4099099,32.5865476 20.4892984,32.4760742 19.2152331,32.4760742 L19.5235741,32.5423887 C6.59207844,26.7103061 -0.377584698,14.5309779 1.93637611,6.43211506 L1.88605354,6.56148442 Z M21.43203,18.625 L22.93203,18.625 C22.93203,14.2858382 19.2743221,11.4760742 15.2152331,11.4760742 L15.2152331,12.9760742 C18.5193715,12.9760742 21.43203,15.213509 21.43203,18.625 Z M27.472771,19.3321402 L28.9576953,19.1200082 C27.773915,10.8335462 23.8615747,6.43216341 15.2980568,5.48066142 L15.1324095,6.97148702 C22.9661518,7.84190283 26.3799556,11.6824321 27.472771,19.3321402 Z M32.68203,19 L34.18203,19 C34.18203,7.75841643 26.5772004,0 15.43203,0 L15.43203,1.5 C25.7419861,1.5 32.68203,8.58020478 32.68203,19 Z" id="icon-phone" fill="#CCCCCC"></path>
    </g>
</svg>