<?xml version="1.0" encoding="UTF-8" standalone="no"?>
<svg width="38px" height="38px" viewBox="0 0 38 38" version="1.1" xmlns="http://www.w3.org/2000/svg" xmlns:xlink="http://www.w3.org/1999/xlink">
    <!-- Generator: Sketch 40.3 (33839) - http://www.bohemiancoding.com/sketch -->
    <title>Group</title>
    <desc>Created with Sketch.</desc>
    <defs></defs>
    <g id="Page-1" stroke="none" stroke-width="1" fill="none" fill-rule="evenodd">
        <g id="Group" fill="#CCCCCC">
            <path d="M12,5 L11.5,38 L10,36.5 L28,36.5 L26.5,38 C26.5,38 26.8437269,17.3140224 27,7 C27.0103936,6.31402245 27,5 27,5 L26,5 L14,5 L12,5 Z M28,38 L10,38 L10,5 L28,5 L28,38 Z" id="Rectangle-8-Copy-3"></path>
            <path d="M1.5,36.5 L9.5,36.5 L10,14.5 C10.4065755,14.9065755 11,14.5 11,14.5 L1.5,14.5 L1.5,36.5 Z M11,38 L0,38 L0,13 L11,13 L11,38 Z" id="Rectangle-8"></path>
            <path d="M28.5,14 L28.5,37 L27,36.5 L37,36.5 L36.5,37 L36.5,14 L37,14.5 L27,14.5 L28.5,14 Z M38,38 L27,38 L27,13 L38,13 L38,38 Z" id="Rectangle-8-Copy"></path>
            <path d="M15,27.5 L16.5,26 L16.5,38 L15,36.5 L23,36.5 L21.5,38 L21.5,26 L23,27.5 L15,27.5 L15,27.5 Z M23,26 L23,38 L15,38 L15,26 L23,26 L23,26 Z" id="Rectangle-8-Copy-2"></path>
            <path d="M13,13 L18,13 L18,15 L13,15 L13,13 L13,13 Z M3,18 L8,18 L8,20 L3,20 L3,18 L3,18 Z M30,18 L35,18 L35,20 L30,20 L30,18 L30,18 Z M13,17 L18,17 L18,19 L13,19 L13,17 L13,17 Z M13,21 L18,21 L18,23 L13,23 L13,21 L13,21 Z M20,13 L25,13 L25,15 L20,15 L20,13 L20,13 Z M20,17 L25,17 L25,19 L20,19 L20,17 L20,17 Z M20,21 L25,21 L25,23 L20,23 L20,21 L20,21 Z M3,22 L8,22 L8,24 L3,24 L3,22 L3,22 Z M30,22 L35,22 L35,24 L30,24 L30,22 L30,22 Z M3,31 L8,31 L8,33 L3,33 L3,31 L3,31 Z M30,31 L35,31 L35,33 L30,33 L30,31 L30,31 Z M3,26 L8,26 L8,28 L3,28 L3,26 L3,26 Z M30,26 L35,26 L35,28 L30,28 L30,26 L30,26 Z" id="Combined-Shape"></path>
            <path d="M23,6 C23,3.790861 21.209139,2 19,2 C16.790861,2 15,3.790861 15,6 C15,8.209139 16.790861,10 19,10 C21.209139,10 23,8.209139 23,6 L23,6 Z M13,6 C13,2.6862915 15.6862915,0 19,0 C22.3137085,0 25,2.6862915 25,6 C25,9.3137085 22.3137085,12 19,12 C15.6862915,12 13,9.3137085 13,6 L13,6 Z M18,3.5 L20,3.5 L20,5 L21.5299988,5 L21.5299988,7 L20,7 L20,8.5 L18,8.5 L18,7 L16.5,7 L16.5,5 L18,5 L18,3.5 L18,3.5 Z M10,5 L13,5 L13,7 L10,7 L10,5 L10,5 Z M25,5 L28,5 L28,7 L25,7 L25,5 L25,5 Z" id="Combined-Shape"></path>
        </g>
    </g>
</svg>