<?xml version="1.0" encoding="UTF-8" standalone="no"?>
<svg width="38px" height="26px" viewBox="0 0 38 26" version="1.1" xmlns="http://www.w3.org/2000/svg" xmlns:xlink="http://www.w3.org/1999/xlink">
    <!-- Generator: Sketch 40.3 (33839) - http://www.bohemiancoding.com/sketch -->
    <title>icon-email</title>
    <desc>Created with Sketch.</desc>
    <defs></defs>
    <g id="ixons" stroke="none" stroke-width="1" fill="none" fill-rule="evenodd">
        <path d="M15.0476918,12.9589152 L6.46045546,20.5920142 L5.8684413,21.0524696 L4.94753038,19.8684413 L5.53954454,19.4079858 L13.8288054,12.0397539 L5.04843053,5.41847979 L4.44961085,4.96691032 L5.35274979,3.76927096 L5.95156947,4.22084043 L19.4515695,14.4011803 L18.5415404,14.4064389 L31.7218803,4.22609902 L32.3154414,3.76763939 L33.2323606,4.95476158 L32.6387995,5.41322121 L24.1192743,11.9936026 L32.4604555,19.4079858 L33.0524696,19.8684413 L32.1315587,21.0524696 L31.5395445,20.5920142 L22.9138066,12.9246916 L19.4584596,15.5935611 L19.0054518,15.9434591 L18.5484305,15.5988197 L15.0476918,12.9589152 Z M3.99484381,0 L34.0051562,0 C36.2114475,0 38,1.78708529 38,4.00552025 L38,21.9944797 C38,24.2066675 36.2181492,26 34.0051562,26 L3.99484381,26 C1.7885525,26 0,24.2129147 0,21.9944797 L0,4.00552025 C0,1.7933325 1.78185079,0 3.99484381,0 Z M2,21.9944797 C2,23.1068993 2.8916808,24 3.99484381,24 L34.0051562,24 C35.1095475,24 36,23.1061319 36,21.9944797 L36,4.00552025 C36,2.89310067 35.1083192,2 34.0051562,2 L3.99484381,2 C2.89045254,2 2,2.89386813 2,4.00552025 L2,21.9944797 Z" id="icon-email" fill="#CCCCCC"></path>
    </g>
</svg>