<svg xmlns="http://www.w3.org/2000/svg" width="44" height="33" viewBox="0 0 44 33"><title>  icon-sign-out</title><desc>  Created with Sketch.</desc><g fill="none"><g fill="#AAA"><path d="M17 31L4 31 2 29 2 4 4 2 17 2 17 5 10 5C9.8 5 7 5 7 5L6 6C6 6 5 7 5 7L5 27 6 28 17 28 17 31ZM19 27L18 26 8 26 7 25 7 8 8 7 18 7 19 6 19 1 18 0 3 0 0 3 0 30C0.1 30.1 3 33 3 33L9 33 18 33 19 32 19 27ZM27 29L26 29 26 19 11 19C11 19 11.1 14.2 11 14 11.3 14 26 14 26 14L26 4 27 4 41 16 41 17 27 29ZM25 2L24 3 24 12 10 12C10 12 10.2 12.8 10 13 9.8 13.2 9 13 9 13L9 20 10 20 10 21 24 21 24 30 25 31 28 31 44 17 44 16 28 2 25 2Z"/></g></g></svg>