<?xml version="1.0" encoding="UTF-8" standalone="no"?>
<svg width="36px" height="36px" viewBox="0 0 36 36" version="1.1" xmlns="http://www.w3.org/2000/svg" xmlns:xlink="http://www.w3.org/1999/xlink">
    <!-- Generator: Sketch 40.3 (33839) - http://www.bohemiancoding.com/sketch -->
    <title>icon-hours</title>
    <desc>Created with Sketch.</desc>
    <defs></defs>
    <g id="ixons" stroke="none" stroke-width="1" fill="none" fill-rule="evenodd">
        <path d="M0,18 C0,8.0588745 8.0588745,0 18,0 C27.9411255,0 36,8.0588745 36,18 C36,27.9411255 27.9411255,36 18,36 C8.0588745,36 0,27.9411255 0,18 Z M34,18 C34,9.163444 26.836556,2 18,2 C9.163444,2 2,9.163444 2,18 C2,26.836556 9.163444,34 18,34 C26.836556,34 34,26.836556 34,18 Z M17,7 L19,7 L19,18 L20,19 L27,26 L27,27 L25,27 L19,21 L17,19 L17,7 Z" id="icon-hours" fill="#CCCCCC"></path>
    </g>
</svg>